<svg width="202" height="76" viewBox="0 0 202 76" fill="none" xmlns="http://www.w3.org/2000/svg">
<g clip-path="url(#clip0_624_578)">
<path d="M23.7694 33.7627C24.1665 34.1586 24.4816 34.6291 24.6966 35.147C24.9116 35.665 25.0222 36.2202 25.0222 36.781C25.0222 37.3418 24.9116 37.8971 24.6966 38.4151C24.4816 38.933 24.1665 39.4035 23.7694 39.7994L12.5524 51.0674C11.3867 52.236 10.6223 53.7446 10.3694 55.3757C10.1164 57.0069 10.3881 58.6762 11.1452 60.1429L26.6654 44.7145L27.6851 43.6948C29.5109 41.8652 30.5363 39.3861 30.5363 36.8014C30.5363 34.2167 29.5109 31.7376 27.6851 29.9081L16.4682 18.6912C16.0629 18.2562 15.8423 17.6809 15.8528 17.0865C15.8632 16.4921 16.104 15.925 16.5244 15.5046C16.9448 15.0843 17.5119 14.8435 18.1063 14.833C18.7007 14.8225 19.276 15.0431 19.7109 15.4484L30.9279 26.6654C32.757 28.488 35.2339 29.5114 37.8161 29.5114C40.3983 29.5114 42.8752 28.488 44.7043 26.6654L49.803 21.5668L71.8086 0.0200195L60.1124 9.6666C58.738 9.19689 57.2595 9.12181 55.8446 9.44985C54.4296 9.77789 53.135 10.4959 52.1075 11.5225L40.8906 22.7395C40.4962 23.1375 40.0268 23.4534 39.5096 23.669C38.9924 23.8846 38.4376 23.9957 37.8773 23.9957C37.3169 23.9957 36.7622 23.8846 36.245 23.669C35.7278 23.4534 35.2584 23.1375 34.864 22.7395L23.596 11.5225C22.141 10.058 20.1639 9.23152 18.0995 9.22482C16.0351 9.21813 14.0526 10.0318 12.5881 11.4868C11.1237 12.9418 10.2972 14.919 10.2905 16.9833C10.2838 19.0477 11.0974 21.0302 12.5524 22.4947L23.7694 33.7627Z" fill="black"/>
<path d="M51.0576 38.5969C50.6604 38.201 50.3453 37.7305 50.1304 37.2126C49.9154 36.6946 49.8047 36.1394 49.8047 35.5786C49.8047 35.0178 49.9154 34.4625 50.1304 33.9446C50.3453 33.4266 50.6604 32.9561 51.0576 32.5602L62.3255 21.2616C63.489 20.0938 64.2521 18.587 64.5049 16.9581C64.7578 15.3291 64.4874 13.6619 63.7327 12.1963L48.2431 27.6757L47.2234 28.6954C45.3976 30.525 44.3723 33.0041 44.3723 35.5888C44.3723 38.1734 45.3976 40.6526 47.2234 42.4821L58.4404 53.7399C58.8717 54.1699 59.1146 54.7536 59.1156 55.3627C59.1165 55.9718 58.8755 56.5563 58.4455 56.9877C58.0154 57.419 57.4317 57.6619 56.8226 57.6629C56.2135 57.6638 55.629 57.4228 55.1976 56.9928L43.9399 45.735C43.0355 44.8301 41.9617 44.1122 40.7798 43.6224C39.5979 43.1326 38.331 42.8805 37.0516 42.8805C35.7723 42.8805 34.5054 43.1326 33.3235 43.6224C32.1416 44.1122 31.0678 44.8301 30.1634 45.735L22.1994 53.6991L21.3326 54.576L0 75.9902L15.1123 62.8256C16.4482 63.2118 17.8632 63.233 19.21 62.8869C20.5568 62.5407 21.7863 61.84 22.7704 60.8575L34.0384 49.6405C34.4328 49.2425 34.9021 48.9266 35.4193 48.711C35.9365 48.4954 36.4913 48.3843 37.0516 48.3843C37.612 48.3843 38.1668 48.4954 38.684 48.711C39.2012 48.9266 39.6705 49.2425 40.0649 49.6405L51.2819 60.8575C52.7561 62.2396 54.7101 62.9939 56.7306 62.9608C58.751 62.9278 60.6793 62.11 62.1075 60.6805C63.5357 59.2509 64.3517 57.3219 64.3829 55.3014C64.414 53.2809 63.6579 51.3276 62.2745 49.8547L51.0576 38.5969Z" fill="black"/>
<path d="M80.1797 46.5195L81.4747 45.0103C82.3797 46.0749 83.5047 46.9306 84.7721 47.5186C86.0396 48.1066 87.4195 48.4128 88.8167 48.4162C93.5891 48.4162 94.9351 45.7547 94.9351 43.7458C94.9351 36.8627 80.8833 40.4521 80.8833 32.2638C80.8833 28.4398 84.3299 26.0129 88.572 26.0129C90.0578 25.9437 91.5405 26.2041 92.9138 26.7753C94.2872 27.3465 95.5171 28.2143 96.5156 29.3168L95.1798 30.7954C94.3581 29.8268 93.3273 29.0574 92.165 28.5452C91.0027 28.0329 89.7393 27.7912 88.47 27.8382C85.3497 27.8382 82.9941 29.6329 82.9941 32.1618C82.9941 38.168 97.0357 34.8641 97.0357 43.6133C97.0357 46.6725 94.9963 50.2415 88.7148 50.2415C87.105 50.2935 85.5039 49.9864 84.0276 49.3426C82.5514 48.6989 81.2369 47.7345 80.1797 46.5195Z" fill="black"/>
<path d="M107.183 49.8135V28.2259H99.5254V26.3599H116.861V28.1852H109.223V49.8135H107.183Z" fill="black"/>
<path d="M134.542 49.8135L127.975 40.1261H122.805V49.8135H120.766V26.3599H129.515C133.594 26.3599 136.653 28.9194 136.653 33.2124C136.695 34.088 136.557 34.9628 136.249 35.7832C135.94 36.6037 135.467 37.3525 134.859 37.9836C134.251 38.6148 133.52 39.115 132.711 39.4536C131.903 39.7922 131.034 39.9621 130.157 39.9528L136.959 49.8135H134.542ZM134.542 33.243C134.567 32.5613 134.448 31.8821 134.193 31.2495C133.937 30.6168 133.552 30.0448 133.062 29.5707C132.571 29.0967 131.987 28.731 131.346 28.4976C130.705 28.2641 130.022 28.1681 129.342 28.2158H122.774V38.3008H129.342C130.025 38.3499 130.712 38.2545 131.357 38.0207C132.001 37.7869 132.59 37.42 133.083 36.9439C133.576 36.4677 133.964 35.893 134.221 35.2571C134.477 34.6213 134.597 33.9385 134.573 33.2532L134.542 33.243Z" fill="black"/>
<path d="M159.261 49.8135L156.946 44.0521H144.546L142.231 49.8135H139.906L149.502 26.3599H151.99L161.575 49.8135H159.261ZM150.766 28.5319L145.209 42.2268H156.273L150.766 28.5319Z" fill="black"/>
<path d="M167.898 49.8135V28.2259H160.24V26.3599H177.576V28.1852H169.917V49.8135H167.898Z" fill="black"/>
<path d="M198.939 49.8135L190.781 39.2492L182.623 49.8135H180.125L189.537 37.8012L180.645 26.3599H183.174L190.761 36.3022L198.378 26.3599H200.907L192.025 37.7808L201.437 49.8135H198.939Z" fill="black"/>
</g>
<defs>
<clipPath id="clip0_624_578">
<rect width="201.436" height="76" fill="white"/>
</clipPath>
</defs>
</svg>
