<svg width="20" height="20" viewBox="0 0 20 20" fill="none" xmlns="http://www.w3.org/2000/svg">
<path d="M13.3794 7.91264C13.0613 7.91264 12.76 7.78664 12.534 7.56405C12.5131 7.54305 12.3959 7.38765 12.354 7.32465C12.2452 7.13986 12.1825 6.93406 12.1825 6.71567V2.24276C12.1825 1.85636 12.0778 1.49097 11.8979 1.17598C11.5338 0.47879 10.8098 0 9.9728 0C8.77589 0 7.80079 0.978581 7.80079 2.17976V6.65267C7.80079 6.79966 7.7715 6.94246 7.72128 7.07686C7.66269 7.21126 7.57899 7.33725 7.47437 7.44645C7.24838 7.67325 6.95125 7.79504 6.62901 7.79504H2.17619C0.979289 7.79504 0 8.77362 0 9.9748C0 11.176 0.975104 12.1546 2.17619 12.1546H6.63319C6.95125 12.1546 7.25257 12.2806 7.47856 12.5074C7.70454 12.7341 7.82591 13.0323 7.82591 13.3515V17.8244C7.82591 18.7946 8.46202 19.622 9.34087 19.9034V19.8908C9.5543 19.9622 9.78447 20 10.0188 20C11.2157 20 12.1908 19.0214 12.1908 17.8202V13.3977C12.2076 13.1037 12.3248 12.8265 12.534 12.6165C12.76 12.3898 13.0571 12.268 13.3752 12.268H17.828C19.0249 12.268 20 11.2894 20 10.0882C20 8.88702 19.0249 7.90844 17.828 7.90844H13.371L13.3794 7.91264ZM18.4767 10.0924C18.4767 10.4494 18.1879 10.735 17.8364 10.735H13.3836C12.6554 10.735 11.9732 11.0206 11.4585 11.5372C11.1781 11.8186 10.973 12.1462 10.8349 12.5074C10.8349 12.5074 10.701 12.9063 10.6842 13.1163C10.6675 13.2339 10.6591 13.3515 10.6591 13.4733V16.9803H10.6675V17.8286C10.6675 18.1856 10.3787 18.4712 10.0272 18.4712C9.67567 18.4712 9.3869 18.1814 9.3869 17.8286V13.3599C9.3869 13.0071 9.23205 12.5116 9.23205 12.5116C8.87633 11.4196 7.85102 10.6258 6.64156 10.6258H2.18456C1.82883 10.6258 1.54426 10.336 1.54426 9.9832C1.54426 9.63041 1.83302 9.34061 2.18456 9.34061H6.63737C7.36556 9.34061 8.04771 9.05502 8.56246 8.53843C9.07721 8.02184 9.36179 7.33725 9.36179 6.60647L9.34087 4.55271V2.18816C9.34087 1.83116 9.62963 1.54557 9.98117 1.54557C10.3327 1.54557 10.6215 1.83536 10.6215 2.18816V6.65687C10.6215 6.95086 10.7721 7.50525 10.7721 7.50525C11.1111 8.63083 12.149 9.45401 13.3794 9.45401H17.8364C18.1921 9.45401 18.4767 9.74381 18.4767 10.0966" fill="#0000FF"/>
</svg>
