<svg width="128" height="49" viewBox="0 0 128 49" fill="none" xmlns="http://www.w3.org/2000/svg">
<g clip-path="url(#clip0_624_554)">
<path d="M15.1046 21.454C15.3569 21.7056 15.5572 22.0046 15.6938 22.3337C15.8304 22.6628 15.9007 23.0157 15.9007 23.372C15.9007 23.7284 15.8304 24.0812 15.6938 24.4103C15.5572 24.7395 15.3569 25.0384 15.1046 25.29L7.97693 32.4501C7.23618 33.1926 6.75043 34.1513 6.58971 35.1878C6.429 36.2242 6.60164 37.285 7.08273 38.217L16.9448 28.4132L17.5928 27.7652C18.753 26.6027 19.4045 25.0274 19.4045 23.385C19.4045 21.7426 18.753 20.1672 17.5928 19.0047L10.4651 11.877C10.2076 11.6006 10.0674 11.2351 10.0741 10.8574C10.0807 10.4797 10.2338 10.1193 10.5009 9.8522C10.768 9.58508 11.1284 9.43207 11.5061 9.42541C11.8838 9.41874 12.2493 9.55894 12.5257 9.81647L19.6533 16.9441C20.8156 18.1023 22.3896 18.7526 24.0304 18.7526C25.6712 18.7526 27.2451 18.1023 28.4074 16.9441L31.6473 13.7043L45.6305 0.0126953L38.1983 6.14249C37.3249 5.84402 36.3854 5.79631 35.4863 6.00476C34.5873 6.21321 33.7646 6.66948 33.1117 7.3218L25.984 14.4495C25.7334 14.7024 25.4352 14.9031 25.1065 15.0401C24.7779 15.1772 24.4253 15.2477 24.0693 15.2477C23.7132 15.2477 23.3607 15.1772 23.032 15.0401C22.7034 14.9031 22.4051 14.7024 22.1545 14.4495L14.9944 7.3218C14.0699 6.39122 12.8135 5.86602 11.5017 5.86177C10.1899 5.85751 8.9302 6.37455 7.99962 7.29912C7.06903 8.22368 6.54384 9.48003 6.53959 10.7918C6.53533 12.1036 7.05237 13.3634 7.97693 14.2939L15.1046 21.454Z" fill="#F4F4EF"/>
<path d="M32.4439 24.5255C32.1915 24.2739 31.9913 23.9749 31.8547 23.6458C31.7181 23.3167 31.6478 22.9638 31.6478 22.6075C31.6478 22.2511 31.7181 21.8983 31.8547 21.5692C31.9913 21.24 32.1915 20.9411 32.4439 20.6895L39.6039 13.51C40.3433 12.7679 40.8281 11.8104 40.9888 10.7753C41.1495 9.74021 40.9777 8.6808 40.4981 7.74951L30.6555 17.5857L30.0075 18.2337C28.8473 19.3962 28.1958 20.9715 28.1958 22.6139C28.1958 24.2563 28.8473 25.8317 30.0075 26.9942L37.1352 34.1478C37.4093 34.4211 37.5636 34.792 37.5642 35.179C37.5648 35.5661 37.4116 35.9375 37.1384 36.2116C36.8652 36.4857 36.4942 36.64 36.1072 36.6407C35.7201 36.6413 35.3487 36.4881 35.0746 36.2149L27.921 29.0613C27.3464 28.4862 26.664 28.0301 25.913 27.7188C25.162 27.4076 24.3569 27.2474 23.544 27.2474C22.731 27.2474 21.926 27.4076 21.175 27.7188C20.424 28.0301 19.7416 28.4862 19.1669 29.0613L14.1063 34.1219L13.5555 34.6792L0 48.2865L9.60292 39.9212C10.4518 40.1667 11.3509 40.1801 12.2067 39.9602C13.0626 39.7402 13.8438 39.2949 14.4692 38.6706L21.6292 31.543C21.8799 31.2901 22.1781 31.0893 22.5068 30.9523C22.8354 30.8153 23.1879 30.7447 23.544 30.7447C23.9 30.7447 24.2526 30.8153 24.5812 30.9523C24.9099 31.0893 25.2081 31.2901 25.4587 31.543L32.5864 38.6706C33.5232 39.5489 34.7648 40.0282 36.0487 40.0072C37.3326 39.9862 38.5579 39.4665 39.4654 38.5581C40.3729 37.6498 40.8914 36.424 40.9113 35.1401C40.9311 33.8562 40.4506 32.615 39.5715 31.6791L32.4439 24.5255Z" fill="#F4F4EF"/>
<path d="M50.9492 29.5601L51.7721 28.6011C52.3472 29.2775 53.062 29.8213 53.8674 30.1949C54.6728 30.5686 55.5497 30.7631 56.4375 30.7653C59.47 30.7653 60.3253 29.0741 60.3253 27.7976C60.3253 23.4238 51.3963 25.7046 51.3963 20.5015C51.3963 18.0716 53.5864 16.5294 56.282 16.5294C57.2261 16.4854 58.1683 16.6509 59.041 17.0138C59.9136 17.3768 60.6952 17.9283 61.3297 18.6288L60.4809 19.5684C59.9587 18.9529 59.3037 18.464 58.5651 18.1385C57.8266 17.813 57.0238 17.6594 56.2172 17.6893C54.2344 17.6893 52.7376 18.8297 52.7376 20.4366C52.7376 24.2532 61.6602 22.1538 61.6602 27.7134C61.6602 29.6573 60.3642 31.9252 56.3727 31.9252C55.3498 31.9582 54.3324 31.7631 53.3944 31.354C52.4563 30.9449 51.621 30.3321 50.9492 29.5601Z" fill="#F4F4EF"/>
<path d="M68.1084 31.6533V17.9358H63.2422V16.75H74.2577V17.9099H69.4044V31.6533H68.1084Z" fill="#F4F4EF"/>
<path d="M85.4924 31.6533L81.3194 25.4976H78.0342V31.6533H76.7383V16.75H82.2979C84.8898 16.75 86.8337 18.3764 86.8337 21.1044C86.8602 21.6607 86.7727 22.2166 86.5767 22.738C86.3807 23.2593 86.0802 23.7351 85.6937 24.1362C85.3072 24.5372 84.8428 24.8551 84.3291 25.0703C83.8153 25.2854 83.263 25.3934 82.7061 25.3874L87.028 31.6533H85.4924ZM85.4924 21.1238C85.508 20.6906 85.4323 20.259 85.2702 19.857C85.1082 19.455 84.8634 19.0916 84.5517 18.7903C84.2401 18.4891 83.8686 18.2567 83.4613 18.1084C83.054 17.9601 82.6201 17.899 82.1877 17.9293H78.0148V24.3377H82.1877C82.6223 24.3689 83.0586 24.3083 83.4683 24.1597C83.8779 24.0112 84.2516 23.778 84.5652 23.4755C84.8788 23.1729 85.1251 22.8077 85.2882 22.4037C85.4513 21.9996 85.5275 21.5657 85.5118 21.1303L85.4924 21.1238Z" fill="#F4F4EF"/>
<path d="M101.201 31.6533L99.7299 27.9923H91.8506L90.3797 31.6533H88.9023L94.9997 16.75H96.5808L102.672 31.6533H101.201ZM95.8032 18.1302L92.2718 26.8324H99.3023L95.8032 18.1302Z" fill="#F4F4EF"/>
<path d="M106.689 31.6533V17.9358H101.822V16.75H112.838V17.9099H107.971V31.6533H106.689Z" fill="#F4F4EF"/>
<path d="M126.412 31.6533L121.228 24.9404L116.045 31.6533H114.457L120.438 24.0202L114.788 16.75H116.394L121.215 23.0677L126.056 16.75H127.663L122.019 24.0073L128 31.6533H126.412Z" fill="#F4F4EF"/>
</g>
<defs>
<clipPath id="clip0_624_554">
<rect width="128" height="48.2932" fill="white"/>
</clipPath>
</defs>
</svg>
